<?xml version="1.0" standalone="no"?>
<!DOCTYPE svg PUBLIC "-//W3C//DTD SVG 20010904//EN"
 "http://www.w3.org/TR/2001/REC-SVG-20010904/DTD/svg10.dtd">
<svg version="1.0" xmlns="http://www.w3.org/2000/svg"
 width="1308.000000pt" height="1308.000000pt" viewBox="0 0 1308.000000 1308.000000"
 preserveAspectRatio="xMidYMid meet">
<metadata>
Created by potrace 1.14, written by Peter Selinger 2001-2017
</metadata>
<g transform="translate(0.000000,1308.000000) scale(0.100000,-0.100000)"
fill="#000000" stroke="none">
<path d="M6025 12814 c-1419 -118 -2711 -664 -3785 -1598 -148 -128 -488 -468
-616 -616 -861 -991 -1397 -2175 -1563 -3460 -64 -487 -69 -1086 -16 -1570
140 -1254 628 -2425 1414 -3390 273 -336 656 -715 993 -983 223 -177 599 -437
725 -501 111 -56 250 -71 368 -41 229 60 388 282 371 520 -14 195 -92 310
-299 442 -596 377 -1115 856 -1520 1402 -1253 1689 -1426 3979 -442 5841 267
504 560 903 964 1313 412 418 841 736 1361 1012 1253 663 2726 812 4099 415
1918 -554 3414 -2143 3849 -4090 92 -410 132 -774 132 -1215 0 -785 -153
-1517 -465 -2220 -80 -181 -95 -235 -95 -340 0 -136 40 -239 130 -338 102
-112 210 -159 365 -160 159 -1 270 44 373 152 59 61 88 113 180 326 276 637
442 1304 508 2035 21 233 24 806 5 1035 -129 1590 -785 3018 -1898 4131 -1028
1027 -2357 1683 -3780 1863 -402 52 -983 66 -1358 35z"/>
<path d="M3979 9295 c-203 -71 -424 -224 -558 -388 -298 -365 -406 -788 -372
-1452 30 -580 114 -929 255 -1062 39 -36 102 -59 138 -49 15 4 127 142 345
430 l322 424 39 113 c121 351 309 715 532 1034 178 255 496 607 714 790 52 44
95 82 95 85 1 6 -1372 102 -1419 100 -14 -1 -55 -12 -91 -25z"/>
<path d="M6415 9314 c-27 -2 -94 -8 -147 -14 l-97 -10 -113 -77 c-471 -321
-886 -741 -1180 -1194 -210 -324 -375 -684 -469 -1019 l-29 -108 -9 -396 c-5
-218 -11 -399 -14 -402 -3 -3 -357 -162 -788 -353 -898 -399 -802 -341 -903
-546 -125 -255 -170 -503 -133 -725 38 -220 137 -559 199 -685 41 -82 128
-204 193 -273 200 -212 501 -345 899 -398 60 -8 113 -14 118 -14 4 0 8 301 8
669 l0 668 -67 18 c-85 23 -205 83 -258 128 -22 19 -54 59 -69 88 -158 289
336 554 809 434 205 -52 355 -192 355 -330 0 -131 -156 -270 -358 -320 l-72
-17 0 -677 0 -678 182 -6 c261 -10 1161 -8 1378 3 102 5 185 8 186 7 1 -1 119
-454 263 -1007 384 -1482 460 -1772 463 -1775 12 -10 932 -40 1068 -34 161 6
545 0 1302 -21 1049 -28 1558 61 1666 293 19 41 20 78 24 1734 l4 1693 -90 88
c-189 183 -587 490 -731 563 -301 154 -535 327 -781 574 -624 629 -1095 1626
-1333 2820 -36 180 -59 327 -46 300 2 -5 33 -103 69 -216 127 -400 282 -779
476 -1164 292 -578 577 -992 933 -1354 271 -276 546 -479 839 -622 l83 -40 55
58 c200 212 354 626 434 1173 70 478 114 1239 87 1525 -42 444 -171 729 -440
968 -372 330 -1107 525 -2091 553 -134 3 -262 14 -370 29 -431 62 -716 85
-1120 89 -184 2 -357 2 -385 0z m-1059 -2276 c51 -39 98 -113 127 -200 18 -53
21 -87 22 -218 0 -163 -7 -201 -56 -304 -32 -69 -94 -131 -147 -147 -180 -53
-332 291 -267 603 51 240 196 360 321 266z m1423 -96 c47 -38 107 -156 127
-252 22 -102 14 -290 -15 -380 -63 -197 -195 -287 -300 -202 -96 77 -149 204
-158 378 -7 116 6 203 44 307 21 56 39 84 83 129 60 59 86 69 149 56 18 -3 50
-20 70 -36z"/>
</g>
</svg>
